{"title":"Vaada Raha I Promise 2009 Hindi DVDRip XviD ={DaBaS}=","uid":5141441,"size":731897040,"categoryP":"video","categoryS":"movies","magnet":"?xt=urn:btih:b019ed0c33c40fbed109e374ceebef9eb7b8672b&amp;dn=Vaada+Raha+I+Promise+2009+Hindi+DVDRip+XviD+%3D%7BDaBaS%7D%3D&amp;tr=udp%3A%2F%2Ftracker.openbittorrent.com%3A80&amp;tr=udp%3A%2F%2Fopen.demonii.com%3A1337&amp;tr=udp%3A%2F%2Ftracker.coppersurfer.tk%3A6969&amp;tr=udp%3A%2F%2Fexodus.desync.com%3A6969","seeders":0,"leechers":1,"uploader":"jdabas","files":2,"time":1256963386,"description":"Vaada Raha I Promise 2009 Hindi DVDRip XviD ={DaBaS}=\n=====================================================\n\nGeneral\n=======\nFormat : AVI\nFormat/Info : Audio Video Interleave\nFile size : 698 MiB\nDuration : 1h 45mn\nOverall bit rate : 921 Kbps\nImdb Link : http://www.imdb.com/title/tt1512321/\n\n\nVideo\n=====\nFormat : MPEG-4 Visual\nFormat profile : Streaming Video@L1\nFormat settings, BVOP : Yes\nFormat settings, QPel : No\nFormat settings, GMC : No warppoints\nFormat settings, Matrix : Default\nMuxing mode : Packed bitstream\nCodec ID : XVID\nCodec ID/Hint : XviD\nDuration : 1h 45mn\nBit rate : 464 Kbps\nWidth : 720 pixels\nHeight : 320 pixels\nDisplay aspect ratio : 2.25\nFrame rate : 23.976 fps\nResolution : 24 bits\nColorimetry : 4:2:0\nScan type : Progressive\nBits/(Pixel*Frame) : 0.084\nStream size : 351 MiB (50%)\nWriting library : XviD 50\n\nAudio\n=====\nFormat : AC-3\nFormat/Info : Audio Coding 3\nCodec ID : 2000\nDuration : 1h 45mn\nBit rate mode : Constant\nBit rate : 448 Kbps\nChannel(s) : 2 channels\nChannel positions : L R\nSampling rate : 48.0 KHz\nStream size : 339 MiB (49%)\nAlignment : Split accross interleaves\nInterleave, duration : 42 ms (1.00 video frame)\nInterleave, preload duration : 500 ms\nLanguage : Hindi\n\n\nEnglish Subtitles included.....\n\n========================================================================\n\nEnjoy.......\n\n={DaBaS}=","torrent":{"xt":"urn:btih:b019ed0c33c40fbed109e374ceebef9eb7b8672b","amp;dn":"Vaada+Raha+I+Promise+2009+Hindi+DVDRip+XviD+%3D%7BDaBaS%7D%3D","amp;tr":["udp%3A%2F%2Ftracker.openbittorrent.com%3A80","udp%3A%2F%2Fopen.demonii.com%3A1337","udp%3A%2F%2Ftracker.coppersurfer.tk%3A6969","udp%3A%2F%2Fexodus.desync.com%3A6969"],"infoHash":"b019ed0c33c40fbed109e374ceebef9eb7b8672b","infoHashBuffer":{"type":"Buffer","data":[176,25,237,12,51,196,15,190,209,9,227,116,206,235,239,158,183,184,103,43]},"announce":[],"urlList":[]}}